<?xml version="1.0" standalone="no"?>
<!DOCTYPE svg PUBLIC "-//W3C//DTD SVG 20010904//EN"
 "http://www.w3.org/TR/2001/REC-SVG-20010904/DTD/svg10.dtd">
<svg version="1.0" xmlns="http://www.w3.org/2000/svg"
 width="512.000000pt" height="512.000000pt" viewBox="0 0 512.000000 512.000000"
 preserveAspectRatio="xMidYMid meet">
<metadata>
Created by potrace 1.11, written by Peter Selinger 2001-2013
</metadata>
<g transform="translate(0.000000,512.000000) scale(0.100000,-0.100000)"
fill="#000000" stroke="none">
<path d="M0 2560 l0 -2560 2560 0 2560 0 0 2560 0 2560 -2560 0 -2560 0 0
-2560z m2750 1835 c116 -7 291 -37 360 -62 25 -9 81 -33 124 -55 44 -21 87
-38 96 -38 10 0 50 -18 90 -40 40 -22 79 -40 86 -40 8 0 14 -4 14 -10 0 -5 15
-18 33 -27 68 -36 160 -99 193 -131 19 -18 39 -30 44 -27 6 4 13 0 16 -9 8
-21 -23 -63 -51 -70 -13 -3 -27 -15 -30 -26 -3 -11 -14 -20 -23 -20 -9 0 -28
-11 -42 -25 -85 -83 -155 -145 -165 -145 -7 0 -23 -15 -36 -32 -46 -62 -123
-139 -161 -160 -22 -13 -38 -29 -38 -40 0 -9 -11 -25 -25 -34 -14 -9 -25 -20
-25 -24 0 -4 -16 -25 -35 -46 -19 -21 -35 -43 -35 -48 0 -6 -7 -24 -15 -40 -9
-16 -14 -31 -12 -32 2 -2 32 -4 68 -5 35 -1 69 -5 74 -9 6 -4 26 -10 45 -14
46 -9 62 -12 80 -18 8 -3 51 -13 95 -23 44 -10 84 -22 90 -27 5 -4 21 -8 36
-8 15 0 32 -7 39 -15 7 -8 18 -15 25 -15 7 0 26 -7 41 -15 16 -8 39 -15 51
-15 12 0 24 -4 27 -9 9 -13 123 -71 141 -71 8 0 15 -4 15 -10 0 -5 5 -10 11
-10 34 0 209 -154 209 -184 0 -9 7 -16 15 -16 8 0 15 -4 15 -10 0 -5 14 -25
30 -43 17 -19 30 -39 30 -45 0 -16 43 -92 52 -92 4 0 8 -13 8 -30 0 -16 5 -30
10 -30 6 0 10 -8 10 -18 0 -10 5 -23 12 -30 9 -9 9 -12 -1 -12 -10 0 -10 -4
-3 -12 16 -20 42 -117 35 -133 -3 -9 1 -25 9 -38 28 -43 9 -382 -24 -432 -3
-6 -9 -27 -13 -48 -4 -21 -14 -41 -21 -44 -8 -3 -14 -20 -14 -39 0 -19 -3 -34
-8 -34 -4 0 -13 -15 -21 -32 -8 -18 -30 -55 -50 -83 -20 -27 -41 -58 -47 -70
-22 -42 -40 -69 -61 -93 -13 -14 -23 -28 -23 -33 0 -4 -9 -11 -20 -14 -13 -4
-23 -18 -27 -36 -3 -16 -11 -29 -18 -29 -18 0 -75 -49 -75 -64 0 -15 -77 -96
-91 -96 -13 0 -64 -50 -78 -77 -6 -13 -21 -23 -31 -23 -11 0 -25 -9 -32 -20
-7 -11 -19 -20 -26 -20 -6 0 -20 -9 -29 -20 -10 -11 -21 -20 -26 -20 -5 0 -23
-11 -41 -25 -18 -14 -38 -25 -44 -25 -7 0 -12 -4 -12 -10 0 -5 -6 -10 -14 -10
-8 0 -16 -6 -19 -13 -3 -8 -27 -22 -54 -32 -26 -10 -50 -21 -53 -25 -11 -17
-82 -50 -105 -50 -14 0 -25 -4 -25 -9 0 -5 -11 -11 -24 -13 -20 -4 -34 6 -77
58 -29 34 -68 68 -85 74 -18 7 -38 24 -46 38 -7 14 -27 31 -45 38 -17 8 -34
23 -38 34 -3 11 -13 20 -21 20 -15 0 -27 8 -65 42 -10 10 -23 18 -29 18 -5 0
-10 5 -10 10 0 6 -9 10 -20 10 -11 0 -25 9 -32 20 -7 11 -21 20 -30 20 -10 0
-33 9 -51 19 -33 18 -52 28 -97 51 -11 6 -28 10 -39 10 -10 0 -30 9 -44 20
-14 11 -32 18 -40 15 -7 -3 -20 1 -27 10 -7 8 -23 15 -36 15 -12 0 -26 5 -29
10 -3 6 -15 10 -26 10 -10 0 -19 5 -19 10 0 15 -70 12 -86 -4 -8 -8 -14 -18
-14 -21 0 -11 -64 -99 -77 -108 -7 -4 -13 -13 -13 -20 0 -7 -12 -23 -25 -36
-14 -13 -25 -29 -25 -37 0 -8 -17 -25 -37 -38 -49 -31 -93 -71 -93 -82 0 -9
-36 -44 -45 -44 -5 0 -98 -62 -105 -70 -3 -3 -20 -12 -37 -19 -18 -8 -33 -18
-33 -24 0 -6 -3 -7 -7 -4 -3 4 -16 1 -27 -6 -12 -8 -39 -19 -61 -26 -22 -7
-47 -15 -55 -18 -8 -4 -26 -8 -39 -9 -14 -2 -37 -8 -53 -15 -41 -17 -291 -17
-353 0 -65 17 -109 37 -124 55 -6 7 -26 20 -44 27 -43 17 -66 38 -82 74 -7 16
-22 40 -34 52 -11 12 -21 28 -21 36 0 7 -9 23 -20 35 -12 13 -20 35 -20 56 0
19 -5 36 -11 38 -14 5 -14 129 0 156 6 11 11 35 11 51 0 17 4 39 9 49 5 9 19
38 30 65 12 26 26 47 31 47 6 0 10 7 10 15 0 8 6 15 14 15 8 0 17 11 20 24 4
15 17 28 35 34 16 6 34 20 41 31 6 12 15 21 21 21 6 0 25 11 43 25 18 14 38
25 44 25 6 0 12 4 14 8 2 4 32 20 68 35 36 15 78 34 93 42 16 8 36 15 46 15 9
0 21 4 26 9 13 11 84 35 115 37 14 2 58 10 99 18 95 21 424 16 487 -6 22 -8
56 -13 75 -10 29 3 37 10 54 45 10 23 27 54 38 69 10 16 15 33 12 38 -4 6 4
25 17 43 13 18 28 43 35 57 40 89 53 121 53 131 0 6 9 24 20 39 17 24 18 33 9
54 -8 16 -20 25 -33 25 -19 0 -83 14 -126 29 -8 2 -33 7 -55 9 -22 2 -41 9
-43 14 -2 5 -17 9 -32 9 -16 0 -32 5 -35 10 -4 6 -12 10 -18 8 -21 -3 -132 14
-142 22 -15 12 -192 41 -209 34 -9 -3 -16 -2 -16 4 0 11 -89 34 -103 25 -4 -2
-14 1 -22 7 -8 6 -18 9 -24 6 -5 -4 -16 1 -24 9 -9 8 -23 12 -31 9 -11 -4 -16
0 -16 11 0 14 -3 15 -14 6 -11 -10 -24 -9 -58 0 -24 7 -45 15 -48 19 -10 10
-92 50 -105 50 -7 0 -15 6 -18 14 -3 8 -16 16 -29 18 -12 2 -29 16 -38 32 -8
16 -25 40 -38 54 -12 14 -22 33 -21 41 1 9 0 23 -4 31 -11 29 -15 130 -6 135
5 4 9 15 9 26 0 11 9 39 20 61 11 23 20 47 20 54 0 6 7 14 15 18 8 3 15 12 15
21 0 8 6 15 14 15 8 0 30 18 49 41 19 22 38 36 41 31 3 -5 8 -29 12 -53 4 -25
18 -60 35 -81 16 -20 29 -41 29 -47 0 -6 12 -17 28 -25 15 -8 37 -28 50 -45
12 -17 29 -31 36 -31 8 0 16 -7 20 -15 3 -8 12 -15 21 -15 8 0 15 -4 15 -10 0
-5 6 -10 14 -10 7 0 34 -11 60 -25 26 -14 51 -23 55 -20 4 2 17 -5 29 -15 12
-11 28 -20 36 -20 8 0 17 -4 21 -9 3 -5 26 -8 51 -7 26 2 48 -2 52 -9 4 -7 27
-15 52 -19 25 -4 56 -9 70 -12 30 -7 79 -13 140 -17 25 -2 54 -8 66 -15 15 -8
24 -8 32 0 8 8 15 8 26 -1 8 -7 25 -11 38 -10 13 2 34 -1 48 -6 14 -4 36 -10
50 -11 47 -6 135 -26 157 -37 31 -14 53 -2 53 29 0 15 11 42 24 59 68 89 41
112 -149 130 -33 3 -71 9 -85 12 -32 8 -58 13 -90 16 -14 2 -32 6 -40 9 -37
14 -100 28 -128 28 -17 0 -33 4 -36 9 -3 5 -23 9 -43 9 -21 1 -56 9 -78 18
-22 10 -51 19 -65 21 -14 1 -34 6 -45 12 -11 5 -36 15 -55 22 -19 7 -37 16
-40 19 -7 9 -71 40 -83 40 -11 0 -39 24 -114 98 -30 28 -59 52 -64 52 -6 0 -8
4 -4 9 3 5 1 12 -5 16 -6 3 -25 36 -42 73 -30 62 -33 75 -34 180 -1 61 2 112
7 112 5 0 9 8 9 18 0 20 23 89 33 98 4 4 7 17 7 28 0 12 9 32 20 46 11 14 20
28 20 32 0 12 65 110 89 135 12 12 21 26 21 30 0 7 124 137 177 185 12 11 42
33 67 49 25 16 46 33 46 39 0 5 9 10 20 10 11 0 29 9 40 20 11 11 23 20 26 20
12 0 99 45 102 53 2 4 8 4 14 1 8 -5 27 1 100 37 10 5 27 9 38 9 11 0 53 9 93
19 39 10 110 20 157 20 46 1 86 4 89 7 2 2 25 2 50 -1 25 -2 93 -7 151 -10z"/>
<path d="M2295 4211 c-3 -2 -20 -6 -37 -7 -90 -9 -95 -11 -215 -71 -40 -20
-73 -39 -73 -43 0 -4 -14 -13 -30 -20 -17 -7 -35 -21 -41 -31 -5 -11 -16 -19
-24 -19 -8 0 -15 -7 -15 -15 0 -8 -12 -29 -27 -47 -104 -123 -122 -308 -39
-395 12 -12 29 -30 38 -40 28 -30 201 -112 248 -118 16 -2 37 -8 47 -14 19
-10 141 -42 181 -48 12 -2 32 -4 45 -6 13 -2 28 -7 34 -10 7 -4 24 -7 40 -7
15 0 57 -4 93 -10 36 -6 89 -13 119 -15 29 -3 85 -12 125 -20 39 -8 90 -13
114 -11 40 3 45 8 81 62 20 33 45 65 54 73 9 7 17 20 17 27 0 8 10 19 23 25
12 6 29 25 37 42 7 18 24 47 38 64 17 24 22 40 18 58 -4 14 -11 25 -16 25 -6
0 -10 8 -10 18 0 9 -7 28 -14 42 -8 14 -26 48 -39 75 -14 28 -34 60 -46 72
-12 12 -21 29 -21 38 0 8 -7 15 -15 15 -8 0 -15 7 -15 15 0 8 -12 22 -26 32
-54 37 -94 76 -94 89 0 7 -17 23 -37 34 -21 11 -56 31 -78 45 -22 13 -65 32
-95 41 -30 10 -60 21 -65 25 -28 21 -264 46 -280 30z"/>
<path d="M2794 2693 c-8 -18 -14 -40 -14 -50 -1 -10 -9 -36 -19 -57 -26 -54
-12 -78 42 -74 21 1 41 -2 45 -8 4 -6 38 -14 76 -17 38 -4 79 -13 92 -22 13
-8 35 -15 49 -15 14 0 25 -5 25 -11 0 -6 8 -9 18 -7 10 3 34 -3 53 -13 19 -10
51 -25 72 -34 20 -10 37 -21 37 -26 0 -5 5 -9 12 -9 6 0 26 -11 44 -25 18 -14
40 -25 48 -25 8 0 23 -16 32 -36 9 -20 23 -38 31 -41 7 -3 13 -11 13 -18 0 -7
6 -18 13 -24 13 -10 42 -65 65 -123 7 -15 9 -35 6 -43 -4 -8 -2 -21 4 -28 12
-14 19 -128 9 -144 -3 -5 -9 -34 -12 -65 -5 -57 -55 -193 -71 -193 -10 0 -53
83 -53 106 -1 9 -14 35 -31 57 -16 23 -30 46 -30 52 0 5 -4 10 -10 10 -5 0
-10 6 -10 14 0 8 -15 23 -34 34 -18 11 -42 34 -52 51 -10 17 -33 38 -51 46
-18 9 -33 20 -33 25 0 6 -7 10 -15 10 -8 0 -30 9 -50 20 -20 11 -44 20 -55 20
-10 0 -21 4 -25 9 -3 5 -22 15 -43 21 -20 7 -56 20 -79 31 -24 10 -52 19 -62
19 -11 0 -22 4 -26 10 -3 5 -12 7 -19 4 -7 -3 -19 2 -26 11 -7 8 -21 15 -30
15 -10 0 -20 4 -22 9 -1 5 -21 12 -43 15 -37 6 -41 4 -52 -21 -7 -15 -13 -33
-13 -40 0 -7 -4 -21 -9 -31 -10 -19 -24 -53 -25 -64 -1 -3 -4 -9 -8 -13 -4 -4
-4 -13 -2 -19 3 -7 -2 -18 -10 -25 -8 -7 -18 -33 -22 -57 -3 -24 -11 -44 -16
-44 -6 0 -8 -7 -5 -15 4 -8 2 -17 -4 -20 -5 -4 -6 -11 -3 -17 4 -6 2 -13 -4
-17 -10 -6 -15 -38 -13 -73 1 -11 9 -18 20 -18 11 0 22 -4 25 -9 3 -5 17 -8
32 -8 14 0 35 -5 47 -11 34 -16 60 -25 87 -29 13 -2 29 -8 35 -13 5 -4 29 -11
52 -15 22 -3 49 -13 60 -20 10 -8 28 -15 41 -15 12 0 22 -4 22 -10 0 -5 14
-10 30 -10 17 0 30 -3 30 -7 0 -9 49 -33 67 -33 7 0 13 -4 13 -10 0 -5 8 -10
18 -10 10 0 28 -9 40 -20 12 -11 29 -20 39 -20 10 0 29 -9 43 -20 14 -11 34
-20 45 -20 11 0 26 -9 33 -20 7 -11 19 -20 27 -20 8 0 24 -9 35 -20 11 -11 27
-20 35 -20 8 0 15 -4 15 -10 0 -5 9 -10 20 -10 11 0 20 -4 20 -10 0 -5 7 -10
15 -10 8 0 15 -4 15 -9 0 -5 7 -12 16 -15 17 -7 114 86 114 109 0 7 7 15 15
19 8 3 15 12 15 20 0 7 7 16 15 20 8 3 15 15 15 26 0 12 11 33 25 48 14 15 25
34 25 42 0 9 7 25 15 36 8 10 15 28 15 40 0 11 5 25 11 31 6 6 12 27 14 47 2
19 7 41 11 47 11 19 7 255 -5 278 -6 11 -8 26 -6 34 6 15 -15 88 -46 154 -10
24 -19 47 -19 52 0 6 -9 16 -20 24 -11 8 -17 16 -14 20 10 9 -20 44 -64 76
-22 17 -43 38 -46 49 -4 10 -23 28 -44 38 -20 10 -50 28 -67 40 -41 28 -79 46
-91 43 -5 -2 -23 5 -41 14 -18 9 -39 17 -48 17 -9 0 -36 11 -61 25 -25 14 -52
25 -61 25 -9 0 -30 4 -47 10 -17 5 -65 19 -106 31 -41 12 -82 24 -90 27 -43
14 -63 8 -76 -25z"/>
<path d="M1614 1397 c-9 -5 -31 -7 -50 -4 -18 3 -36 1 -40 -4 -3 -6 -12 -8
-20 -5 -7 3 -16 1 -19 -5 -4 -5 -10 -7 -15 -4 -18 11 -136 -66 -145 -94 -3
-10 -16 -23 -29 -29 -36 -16 -44 -112 -10 -112 8 0 14 -7 14 -15 0 -8 8 -15
17 -15 9 0 25 -8 36 -17 16 -15 38 -18 121 -18 121 0 180 16 222 62 17 18 37
33 45 33 16 0 69 46 69 59 0 5 25 34 55 66 30 31 55 62 55 69 0 12 -106 40
-120 31 -4 -3 -44 -1 -89 3 -46 5 -88 4 -97 -1z"/>
</g>
</svg>
